<?xml version="1.0" encoding="utf-8" standalone="no"?>
<!DOCTYPE svg PUBLIC "-//W3C//DTD SVG 1.1//EN"
  "http://www.w3.org/Graphics/SVG/1.1/DTD/svg11.dtd">
<svg xmlns:xlink="http://www.w3.org/1999/xlink" width="872.39952pt" height="548.39952pt" viewBox="0 0 872.39952 548.39952" xmlns="http://www.w3.org/2000/svg" version="1.1">
 <metadata>
  <rdf:RDF xmlns:dc="http://purl.org/dc/elements/1.1/" xmlns:cc="http://creativecommons.org/ns#" xmlns:rdf="http://www.w3.org/1999/02/22-rdf-syntax-ns#">
   <cc:Work>
    <dc:type rdf:resource="http://purl.org/dc/dcmitype/StillImage"/>
    <dc:date>2026-09-24T21:59:14.206984</dc:date>
    <dc:format>image/svg+xml</dc:format>
    <dc:creator>
     <cc:Agent>
      <dc:title>Matplotlib v3.9.4, https://matplotlib.org/</dc:title>
     </cc:Agent>
    </dc:creator>
   </cc:Work>
  </rdf:RDF>
 </metadata>
 <defs>
  <style type="text/css">*{stroke-linejoin: round; stroke-linecap: butt}</style>
 </defs>
 <g id="figure_1">
  <g id="patch_1">
   <path d="M 0 548.39952
L 872.39952 548.39952
L 872.39952 0
L 0 0
z
" style="fill: #ffffff"/>
  </g>
  <g id="axes_1">
   <g id="patch_2">
    <path d="M 50.036406 237.144207
L 435.583666 237.144207
L 435.583666 23.591875
L 50.036406 23.591875
z
" style="fill: #ffffff"/>
   </g>
   <g id="matplotlib.axis_1">
    <g id="xtick_1">
     <g id="line2d_1">
      <defs>
       <path id="m7204f228ca" d="M 0 0
L 0 3.5
" style="stroke: #000000; stroke-width: 0.8"/>
      </defs>
      <g>
       <use xlink:href="#m7204f228ca" x="67.561282" y="237.144207" style="stroke: #000000; stroke-width: 0.8"/>
      </g>
     </g>
     <g id="text_1">
      <text style="font: 11px 'Microsoft YaHei'; text-anchor: middle" x="67.561282" y="252.937332" transform="rotate(-0 67.561282 252.937332)">0</text>
     </g>
    </g>
    <g id="xtick_2">
     <g id="line2d_2">
      <g>
       <use xlink:href="#m7204f228ca" x="138.041376" y="237.144207" style="stroke: #000000; stroke-width: 0.8"/>
      </g>
     </g>
     <g id="text_2">
      <text style="font: 11px 'Microsoft YaHei'; text-anchor: middle" x="138.041376" y="252.937332" transform="rotate(-0 138.041376 252.937332)">10</text>
     </g>
    </g>
    <g id="xtick_3">
     <g id="line2d_3">
      <g>
       <use xlink:href="#m7204f228ca" x="208.52147" y="237.144207" style="stroke: #000000; stroke-width: 0.8"/>
      </g>
     </g>
     <g id="text_3">
      <text style="font: 11px 'Microsoft YaHei'; text-anchor: middle" x="208.52147" y="252.937332" transform="rotate(-0 208.52147 252.937332)">20</text>
     </g>
    </g>
    <g id="xtick_4">
     <g id="line2d_4">
      <g>
       <use xlink:href="#m7204f228ca" x="279.001565" y="237.144207" style="stroke: #000000; stroke-width: 0.8"/>
      </g>
     </g>
     <g id="text_4">
      <text style="font: 11px 'Microsoft YaHei'; text-anchor: middle" x="279.001565" y="252.937332" transform="rotate(-0 279.001565 252.937332)">30</text>
     </g>
    </g>
    <g id="xtick_5">
     <g id="line2d_5">
      <g>
       <use xlink:href="#m7204f228ca" x="349.481659" y="237.144207" style="stroke: #000000; stroke-width: 0.8"/>
      </g>
     </g>
     <g id="text_5">
      <text style="font: 11px 'Microsoft YaHei'; text-anchor: middle" x="349.481659" y="252.937332" transform="rotate(-0 349.481659 252.937332)">40</text>
     </g>
    </g>
    <g id="xtick_6">
     <g id="line2d_6">
      <g>
       <use xlink:href="#m7204f228ca" x="419.961753" y="237.144207" style="stroke: #000000; stroke-width: 0.8"/>
      </g>
     </g>
     <g id="text_6">
      <text style="font: 11px 'Microsoft YaHei'; text-anchor: middle" x="419.961753" y="252.937332" transform="rotate(-0 419.961753 252.937332)">50</text>
     </g>
    </g>
    <g id="text_7">
     <text style="font: 11px 'Microsoft YaHei'; text-anchor: middle" x="242.810036" y="268.464989" transform="rotate(-0 242.810036 268.464989)">运行时间 / s</text>
    </g>
   </g>
   <g id="matplotlib.axis_2">
    <g id="ytick_1">
     <g id="line2d_7">
      <path d="M 50.036406 225.972704
L 435.583666 225.972704
" clip-path="url(#pf2a1d60dff)" style="fill: none; stroke: #b0b0b0; stroke-opacity: 0.17; stroke-width: 0.8; stroke-linecap: square"/>
     </g>
     <g id="line2d_8">
      <defs>
       <path id="mc4cd0bb20a" d="M 0 0
L -3.5 0
" style="stroke: #000000; stroke-width: 0.8"/>
      </defs>
      <g>
       <use xlink:href="#mc4cd0bb20a" x="50.036406" y="225.972704" style="stroke: #000000; stroke-width: 0.8"/>
      </g>
     </g>
     <g id="text_8">
      <text style="font: 11px 'Microsoft YaHei'; text-anchor: end" x="43.036406" y="230.369267" transform="rotate(-0 43.036406 230.369267)">-1.2</text>
     </g>
    </g>
    <g id="ytick_2">
     <g id="line2d_9">
      <path d="M 50.036406 201.689932
L 435.583666 201.689932
" clip-path="url(#pf2a1d60dff)" style="fill: none; stroke: #b0b0b0; stroke-opacity: 0.17; stroke-width: 0.8; stroke-linecap: square"/>
     </g>
     <g id="line2d_10">
      <g>
       <use xlink:href="#mc4cd0bb20a" x="50.036406" y="201.689932" style="stroke: #000000; stroke-width: 0.8"/>
      </g>
     </g>
     <g id="text_9">
      <text style="font: 11px 'Microsoft YaHei'; text-anchor: end" x="43.036406" y="206.086494" transform="rotate(-0 43.036406 206.086494)">-1.0</text>
     </g>
    </g>
    <g id="ytick_3">
     <g id="line2d_11">
      <path d="M 50.036406 177.407159
L 435.583666 177.407159
" clip-path="url(#pf2a1d60dff)" style="fill: none; stroke: #b0b0b0; stroke-opacity: 0.17; stroke-width: 0.8; stroke-linecap: square"/>
     </g>
     <g id="line2d_12">
      <g>
       <use xlink:href="#mc4cd0bb20a" x="50.036406" y="177.407159" style="stroke: #000000; stroke-width: 0.8"/>
      </g>
     </g>
     <g id="text_10">
      <text style="font: 11px 'Microsoft YaHei'; text-anchor: end" x="43.036406" y="181.803722" transform="rotate(-0 43.036406 181.803722)">-0.8</text>
     </g>
    </g>
    <g id="ytick_4">
     <g id="line2d_13">
      <path d="M 50.036406 153.124387
L 435.583666 153.124387
" clip-path="url(#pf2a1d60dff)" style="fill: none; stroke: #b0b0b0; stroke-opacity: 0.17; stroke-width: 0.8; stroke-linecap: square"/>
     </g>
     <g id="line2d_14">
      <g>
       <use xlink:href="#mc4cd0bb20a" x="50.036406" y="153.124387" style="stroke: #000000; stroke-width: 0.8"/>
      </g>
     </g>
     <g id="text_11">
      <text style="font: 11px 'Microsoft YaHei'; text-anchor: end" x="43.036406" y="157.520949" transform="rotate(-0 43.036406 157.520949)">-0.6</text>
     </g>
    </g>
    <g id="ytick_5">
     <g id="line2d_15">
      <path d="M 50.036406 128.841614
L 435.583666 128.841614
" clip-path="url(#pf2a1d60dff)" style="fill: none; stroke: #b0b0b0; stroke-opacity: 0.17; stroke-width: 0.8; stroke-linecap: square"/>
     </g>
     <g id="line2d_16">
      <g>
       <use xlink:href="#mc4cd0bb20a" x="50.036406" y="128.841614" style="stroke: #000000; stroke-width: 0.8"/>
      </g>
     </g>
     <g id="text_12">
      <text style="font: 11px 'Microsoft YaHei'; text-anchor: end" x="43.036406" y="133.238177" transform="rotate(-0 43.036406 133.238177)">-0.4</text>
     </g>
    </g>
    <g id="ytick_6">
     <g id="line2d_17">
      <path d="M 50.036406 104.558841
L 435.583666 104.558841
" clip-path="url(#pf2a1d60dff)" style="fill: none; stroke: #b0b0b0; stroke-opacity: 0.17; stroke-width: 0.8; stroke-linecap: square"/>
     </g>
     <g id="line2d_18">
      <g>
       <use xlink:href="#mc4cd0bb20a" x="50.036406" y="104.558841" style="stroke: #000000; stroke-width: 0.8"/>
      </g>
     </g>
     <g id="text_13">
      <text style="font: 11px 'Microsoft YaHei'; text-anchor: end" x="43.036406" y="108.955404" transform="rotate(-0 43.036406 108.955404)">-0.2</text>
     </g>
    </g>
    <g id="ytick_7">
     <g id="line2d_19">
      <path d="M 50.036406 80.276069
L 435.583666 80.276069
" clip-path="url(#pf2a1d60dff)" style="fill: none; stroke: #b0b0b0; stroke-opacity: 0.17; stroke-width: 0.8; stroke-linecap: square"/>
     </g>
     <g id="line2d_20">
      <g>
       <use xlink:href="#mc4cd0bb20a" x="50.036406" y="80.276069" style="stroke: #000000; stroke-width: 0.8"/>
      </g>
     </g>
     <g id="text_14">
      <text style="font: 11px 'Microsoft YaHei'; text-anchor: end" x="43.036406" y="84.672631" transform="rotate(-0 43.036406 84.672631)">0.0</text>
     </g>
    </g>
    <g id="ytick_8">
     <g id="line2d_21">
      <path d="M 50.036406 55.993296
L 435.583666 55.993296
" clip-path="url(#pf2a1d60dff)" style="fill: none; stroke: #b0b0b0; stroke-opacity: 0.17; stroke-width: 0.8; stroke-linecap: square"/>
     </g>
     <g id="line2d_22">
      <g>
       <use xlink:href="#mc4cd0bb20a" x="50.036406" y="55.993296" style="stroke: #000000; stroke-width: 0.8"/>
      </g>
     </g>
     <g id="text_15">
      <text style="font: 11px 'Microsoft YaHei'; text-anchor: end" x="43.036406" y="60.389859" transform="rotate(-0 43.036406 60.389859)">0.2</text>
     </g>
    </g>
    <g id="ytick_9">
     <g id="line2d_23">
      <path d="M 50.036406 31.710524
L 435.583666 31.710524
" clip-path="url(#pf2a1d60dff)" style="fill: none; stroke: #b0b0b0; stroke-opacity: 0.17; stroke-width: 0.8; stroke-linecap: square"/>
     </g>
     <g id="line2d_24">
      <g>
       <use xlink:href="#mc4cd0bb20a" x="50.036406" y="31.710524" style="stroke: #000000; stroke-width: 0.8"/>
      </g>
     </g>
     <g id="text_16">
      <text style="font: 11px 'Microsoft YaHei'; text-anchor: end" x="43.036406" y="36.107086" transform="rotate(-0 43.036406 36.107086)">0.4</text>
     </g>
    </g>
    <g id="text_17">
     <text style="font: 11px 'Microsoft YaHei'; text-anchor: middle" x="15.993125" y="130.368041" transform="rotate(-90 15.993125 130.368041)">横向偏差 / m</text>
    </g>
   </g>
   <g id="line2d_25">
    <path d="M 67.561282 80.228705
L 68.054642 80.350265
L 68.548003 80.753104
L 69.041364 81.413183
L 69.534724 82.347996
L 70.521446 84.945233
L 72.072008 90.352849
L 74.04545 98.14275
L 77.076094 110.466609
L 78.062816 113.731015
L 79.049537 116.31197
L 80.036258 118.045554
L 80.529619 118.564647
L 81.09346 118.86375
L 81.58682 118.863993
L 82.080181 118.617146
L 82.573542 118.135327
L 83.066902 117.417079
L 84.053624 115.305085
L 85.110825 112.138867
L 86.097547 108.44814
L 88.070989 99.872133
L 90.114912 91.264266
L 91.101633 87.811632
L 92.088355 84.931101
L 93.075076 82.564817
L 94.132277 80.584072
L 95.118999 79.198533
L 96.10572 78.166904
L 97.092441 77.432143
L 98.079163 76.991326
L 99.136364 76.832687
L 100.123085 76.968865
L 101.109807 77.375055
L 103.153729 78.811611
L 104.633811 80.040004
L 105.127172 80.304565
L 106.113893 80.478964
L 106.607254 80.420831
L 107.171095 80.104378
L 107.664455 79.638148
L 108.651177 77.813177
L 110.131259 74.344844
L 111.681821 71.230032
L 112.175181 70.537997
L 112.668542 70.202737
L 113.161903 70.200442
L 113.655263 70.47746
L 114.148624 71.089532
L 114.641985 71.963687
L 115.628706 74.492095
L 117.672629 81.047217
L 119.646071 88.375636
L 120.209912 89.7108
L 120.703273 90.502613
L 121.196633 90.874358
L 121.689994 90.629697
L 122.183355 89.832056
L 122.676715 88.478826
L 123.663437 84.766949
L 124.720638 79.916708
L 127.680802 64.70105
L 128.174163 62.941666
L 129.231364 60.638979
L 129.724725 59.870879
L 130.218086 59.331352
L 130.711446 59.068624
L 131.204807 59.10948
L 132.684889 59.745361
L 133.17825 60.380513
L 134.728812 63.072623
L 136.208894 65.630534
L 137.759456 67.846859
L 138.252816 68.545049
L 138.746177 68.933938
L 139.239538 68.856452
L 139.732898 68.256655
L 140.226259 67.410692
L 141.21298 64.944728
L 142.763542 59.759676
L 144.736985 52.777444
L 145.230346 51.285231
L 145.723706 50.343982
L 146.217067 49.92372
L 146.780908 49.854041
L 147.274268 50.282656
L 148.26099 51.742621
L 149.741072 54.682561
L 151.291634 58.17548
L 153.758437 64.774821
L 154.745158 68.127519
L 155.80236 72.845091
L 157.282442 81.370639
L 160.313086 100.262915
L 161.299807 104.628108
L 161.793168 106.279604
L 162.286528 107.452207
L 162.779889 108.284462
L 163.27325 108.652273
L 163.76661 108.623911
L 164.330451 108.174813
L 164.823812 107.408898
L 165.317173 106.316392
L 166.303894 103.166564
L 168.347817 95.134248
L 169.827899 89.647847
L 170.321259 88.46439
L 170.81462 88.278323
L 172.294702 90.076572
L 173.351903 91.75167
L 174.338625 94.232289
L 175.325346 98.195796
L 176.312067 103.553231
L 177.862629 113.559239
L 178.849351 121.457429
L 180.329433 136.725113
L 181.879995 154.630708
L 185.89736 205.952639
L 186.884081 215.763085
L 187.870803 222.680361
L 188.364163 225.017396
L 188.857524 226.546506
L 189.350885 227.322523
L 189.632805 227.437283
L 189.844245 227.348141
L 190.408086 226.630209
L 190.901447 225.156694
L 191.394807 222.656904
L 192.381529 215.164029
L 193.36825 205.308271
L 194.354971 192.98718
L 195.412173 176.918068
L 196.892255 150.331965
L 199.922899 91.845657
L 200.90962 76.121408
L 201.896341 63.85811
L 202.883063 55.371208
L 203.446904 52.168189
L 203.940264 50.293838
L 204.433625 49.32606
L 204.926986 49.034242
L 205.420346 49.398302
L 205.913707 50.326292
L 206.407068 51.684209
L 207.393789 55.386616
L 208.45099 60.53426
L 209.931072 70.116715
L 210.917794 76.237358
L 212.961716 90.891028
L 214.441798 99.813138
L 215.42852 105.04338
L 216.415241 109.203322
L 216.979082 110.75623
L 217.472442 111.53102
L 217.965803 111.969847
L 218.459164 111.999362
L 218.952524 111.69414
L 220.432606 109.844703
L 221.983168 107.370507
L 224.449972 103.070283
L 225.507173 101.559567
L 228.960698 98.218051
L 229.454058 97.302396
L 230.017899 95.618252
L 230.51126 93.589512
L 231.497981 87.968888
L 232.484702 80.233416
L 236.502068 43.752618
L 237.488789 36.88908
L 237.98215 34.626059
L 238.545991 33.298799
L 239.039351 33.709542
L 239.532712 35.260264
L 240.026073 37.336417
L 240.519433 39.993742
L 241.012794 43.430458
L 242.492876 57.069642
L 246.016881 93.915435
L 246.510241 97.108425
L 247.003602 99.314297
L 247.567443 100.64957
L 248.060803 100.731585
L 248.554164 99.712182
L 249.047525 97.603673
L 249.540885 94.675243
L 250.527607 86.811255
L 253.06489 64.364685
L 254.051611 58.058862
L 254.544972 55.77259
L 255.038333 54.117659
L 255.531693 52.993706
L 256.095534 52.466248
L 256.588895 52.590964
L 257.082255 53.149917
L 258.068977 55.467052
L 259.055698 58.178479
L 260.60626 63.496977
L 262.579703 70.443598
L 263.566424 73.339586
L 264.553145 75.749857
L 266.103707 78.919548
L 267.090429 80.880504
L 267.583789 82.154184
L 268.570511 85.909575
L 272.587876 103.75303
L 273.645078 109.760345
L 275.125159 119.900758
L 276.605241 132.303827
L 278.155804 146.930301
L 281.115968 175.313292
L 282.66653 187.449482
L 283.653251 193.247443
L 284.146612 195.406509
L 284.639972 197.048717
L 285.133333 198.005288
L 285.626694 198.290611
L 286.120054 197.722904
L 286.683895 195.711768
L 287.177256 193.0102
L 288.163977 185.485953
L 289.150698 175.076389
L 290.63078 155.849108
L 294.648146 98.89775
L 295.705347 88.13378
L 296.692068 81.438048
L 297.185429 79.231983
L 297.67879 77.657633
L 298.17215 76.824346
L 298.665511 76.558935
L 299.158872 76.906264
L 299.652232 77.679828
L 300.216073 79.327487
L 301.202794 84.257011
L 302.189516 89.577961
L 303.176237 93.460667
L 304.233438 96.711961
L 305.22016 98.921098
L 306.206881 100.494415
L 307.193602 101.659867
L 307.686963 102.036286
L 308.180324 102.233657
L 308.744164 102.014153
L 309.237525 101.288595
L 309.730886 100.175983
L 310.224246 98.647929
L 310.717607 96.703729
L 311.704328 91.231995
L 312.69105 83.837125
L 314.734973 65.204808
L 316.215054 51.89275
L 317.201776 45.085062
L 317.765617 42.370527
L 318.258977 40.767609
L 318.752338 39.925859
L 319.245699 39.820059
L 319.739059 40.464002
L 320.23242 41.729098
L 321.219141 45.777995
L 322.276343 51.600361
L 325.236507 69.110352
L 326.293708 74.107783
L 327.280429 77.76421
L 328.267151 80.389627
L 329.253872 82.135425
L 330.240593 83.150129
L 330.804434 83.429794
L 331.791155 83.55553
L 333.271237 83.516411
L 334.257959 83.207789
L 335.31516 82.530081
L 336.301881 81.498269
L 337.288603 80.068767
L 338.768685 77.3185
L 339.825886 75.390241
L 341.305968 73.352504
L 342.292689 72.397499
L 342.78605 72.111788
L 343.279411 72.032493
L 343.843251 72.144752
L 344.336612 72.475835
L 344.829973 73.415518
L 346.803415 80.097481
L 348.353978 86.420509
L 351.807502 101.326853
L 352.864704 105.057731
L 353.851425 109.550639
L 355.331507 117.489224
L 356.318228 121.489665
L 357.86879 127.172805
L 358.855512 131.210508
L 359.348872 132.296263
L 359.842233 132.516302
L 360.335594 132.070652
L 360.828954 130.949893
L 361.392795 129.019425
L 361.886156 126.823412
L 362.872877 121.020206
L 363.859598 113.718243
L 365.33968 101.861293
L 366.890242 91.771801
L 367.876964 86.34919
L 368.863685 82.229934
L 369.357046 80.729028
L 369.920886 79.414662
L 370.414247 78.995408
L 370.907608 79.606629
L 371.400968 81.04162
L 372.88105 87.951319
L 373.867772 93.476099
L 375.911694 106.013282
L 376.898416 110.06252
L 377.885137 113.021108
L 378.942338 115.237652
L 379.92906 116.3956
L 380.42242 116.498632
L 380.915781 116.416763
L 381.409142 116.041303
L 381.902502 115.508211
L 382.395863 114.735509
L 382.889224 113.720052
L 383.453064 112.277157
L 384.439786 108.881612
L 385.426507 104.40875
L 386.413228 98.905763
L 387.47043 91.633753
L 389.443872 75.864423
L 390.923954 64.639153
L 391.981156 58.496195
L 392.474517 56.518776
L 392.967877 55.091956
L 393.461238 54.457593
L 393.954599 54.594524
L 394.447959 55.674888
L 394.94132 57.524167
L 395.928041 63.218817
L 397.971964 78.4201
L 398.465325 80.997012
L 398.958685 82.96898
L 399.452046 84.251584
L 399.945407 84.914588
L 400.438767 84.782939
L 401.002608 83.608503
L 401.495969 81.777582
L 402.48269 76.935634
L 405.019973 62.599036
L 406.006695 58.721964
L 406.993416 56.12157
L 407.486777 55.389857
L 407.980137 55.092515
L 408.473498 55.156633
L 408.966859 55.527431
L 410.02406 57.322742
L 411.504142 61.68513
L 414.534786 74.362995
L 415.521507 77.962771
L 417.001589 82.156114
L 418.058791 84.375827
L 418.058791 84.375827
" clip-path="url(#pf2a1d60dff)" style="fill: none; stroke: #0f4d92; stroke-width: 1.5; stroke-linecap: square"/>
   </g>
   <g id="line2d_26">
    <path d="M 50.036406 80.276069
L 435.583666 80.276069
" clip-path="url(#pf2a1d60dff)" style="fill: none; stroke-dasharray: 1,1.65; stroke-dashoffset: 0; stroke: #888888"/>
   </g>
   <g id="patch_3">
    <path d="M 50.036406 237.144207
L 50.036406 23.591875
" style="fill: none; stroke: #000000; stroke-width: 1.1; stroke-linejoin: miter; stroke-linecap: square"/>
   </g>
   <g id="patch_4">
    <path d="M 50.036406 237.144207
L 435.583666 237.144207
" style="fill: none; stroke: #000000; stroke-width: 1.1; stroke-linejoin: miter; stroke-linecap: square"/>
   </g>
   <g id="text_18">
    <text style="font: 700 13px 'Microsoft YaHei'; text-anchor: middle" x="242.810036" y="17.591875" transform="rotate(-0 242.810036 17.591875)">A  山路运行</text>
   </g>
  </g>
  <g id="axes_2">
   <g id="patch_5">
    <path d="M 479.65226 237.144207
L 865.19952 237.144207
L 865.19952 23.591875
L 479.65226 23.591875
z
" style="fill: #ffffff"/>
   </g>
   <g id="matplotlib.axis_3">
    <g id="xtick_7">
     <g id="line2d_27">
      <g>
       <use xlink:href="#m7204f228ca" x="497.177135" y="237.144207" style="stroke: #000000; stroke-width: 0.8"/>
      </g>
     </g>
     <g id="text_19">
      <text style="font: 11px 'Microsoft YaHei'; text-anchor: middle" x="497.177135" y="252.937332" transform="rotate(-0 497.177135 252.937332)">0</text>
     </g>
    </g>
    <g id="xtick_8">
     <g id="line2d_28">
      <g>
       <use xlink:href="#m7204f228ca" x="567.65723" y="237.144207" style="stroke: #000000; stroke-width: 0.8"/>
      </g>
     </g>
     <g id="text_20">
      <text style="font: 11px 'Microsoft YaHei'; text-anchor: middle" x="567.65723" y="252.937332" transform="rotate(-0 567.65723 252.937332)">10</text>
     </g>
    </g>
    <g id="xtick_9">
     <g id="line2d_29">
      <g>
       <use xlink:href="#m7204f228ca" x="638.137324" y="237.144207" style="stroke: #000000; stroke-width: 0.8"/>
      </g>
     </g>
     <g id="text_21">
      <text style="font: 11px 'Microsoft YaHei'; text-anchor: middle" x="638.137324" y="252.937332" transform="rotate(-0 638.137324 252.937332)">20</text>
     </g>
    </g>
    <g id="xtick_10">
     <g id="line2d_30">
      <g>
       <use xlink:href="#m7204f228ca" x="708.617418" y="237.144207" style="stroke: #000000; stroke-width: 0.8"/>
      </g>
     </g>
     <g id="text_22">
      <text style="font: 11px 'Microsoft YaHei'; text-anchor: middle" x="708.617418" y="252.937332" transform="rotate(-0 708.617418 252.937332)">30</text>
     </g>
    </g>
    <g id="xtick_11">
     <g id="line2d_31">
      <g>
       <use xlink:href="#m7204f228ca" x="779.097513" y="237.144207" style="stroke: #000000; stroke-width: 0.8"/>
      </g>
     </g>
     <g id="text_23">
      <text style="font: 11px 'Microsoft YaHei'; text-anchor: middle" x="779.097513" y="252.937332" transform="rotate(-0 779.097513 252.937332)">40</text>
     </g>
    </g>
    <g id="xtick_12">
     <g id="line2d_32">
      <g>
       <use xlink:href="#m7204f228ca" x="849.577607" y="237.144207" style="stroke: #000000; stroke-width: 0.8"/>
      </g>
     </g>
     <g id="text_24">
      <text style="font: 11px 'Microsoft YaHei'; text-anchor: middle" x="849.577607" y="252.937332" transform="rotate(-0 849.577607 252.937332)">50</text>
     </g>
    </g>
    <g id="text_25">
     <text style="font: 11px 'Microsoft YaHei'; text-anchor: middle" x="672.42589" y="268.464989" transform="rotate(-0 672.42589 268.464989)">运行时间 / s</text>
    </g>
   </g>
   <g id="matplotlib.axis_4">
    <g id="ytick_10">
     <g id="line2d_33">
      <path d="M 479.65226 234.231745
L 865.19952 234.231745
" clip-path="url(#pf2fbfc46c1)" style="fill: none; stroke: #b0b0b0; stroke-opacity: 0.17; stroke-width: 0.8; stroke-linecap: square"/>
     </g>
     <g id="line2d_34">
      <g>
       <use xlink:href="#mc4cd0bb20a" x="479.65226" y="234.231745" style="stroke: #000000; stroke-width: 0.8"/>
      </g>
     </g>
     <g id="text_26">
      <text style="font: 11px 'Microsoft YaHei'; text-anchor: end" x="472.65226" y="238.628307" transform="rotate(-0 472.65226 238.628307)">-6</text>
     </g>
    </g>
    <g id="ytick_11">
     <g id="line2d_35">
      <path d="M 479.65226 209.146643
L 865.19952 209.146643
" clip-path="url(#pf2fbfc46c1)" style="fill: none; stroke: #b0b0b0; stroke-opacity: 0.17; stroke-width: 0.8; stroke-linecap: square"/>
     </g>
     <g id="line2d_36">
      <g>
       <use xlink:href="#mc4cd0bb20a" x="479.65226" y="209.146643" style="stroke: #000000; stroke-width: 0.8"/>
      </g>
     </g>
     <g id="text_27">
      <text style="font: 11px 'Microsoft YaHei'; text-anchor: end" x="472.65226" y="213.543206" transform="rotate(-0 472.65226 213.543206)">-4</text>
     </g>
    </g>
    <g id="ytick_12">
     <g id="line2d_37">
      <path d="M 479.65226 184.061542
L 865.19952 184.061542
" clip-path="url(#pf2fbfc46c1)" style="fill: none; stroke: #b0b0b0; stroke-opacity: 0.17; stroke-width: 0.8; stroke-linecap: square"/>
     </g>
     <g id="line2d_38">
      <g>
       <use xlink:href="#mc4cd0bb20a" x="479.65226" y="184.061542" style="stroke: #000000; stroke-width: 0.8"/>
      </g>
     </g>
     <g id="text_28">
      <text style="font: 11px 'Microsoft YaHei'; text-anchor: end" x="472.65226" y="188.458105" transform="rotate(-0 472.65226 188.458105)">-2</text>
     </g>
    </g>
    <g id="ytick_13">
     <g id="line2d_39">
      <path d="M 479.65226 158.976441
L 865.19952 158.976441
" clip-path="url(#pf2fbfc46c1)" style="fill: none; stroke: #b0b0b0; stroke-opacity: 0.17; stroke-width: 0.8; stroke-linecap: square"/>
     </g>
     <g id="line2d_40">
      <g>
       <use xlink:href="#mc4cd0bb20a" x="479.65226" y="158.976441" style="stroke: #000000; stroke-width: 0.8"/>
      </g>
     </g>
     <g id="text_29">
      <text style="font: 11px 'Microsoft YaHei'; text-anchor: end" x="472.65226" y="163.373003" transform="rotate(-0 472.65226 163.373003)">0</text>
     </g>
    </g>
    <g id="ytick_14">
     <g id="line2d_41">
      <path d="M 479.65226 133.89134
L 865.19952 133.89134
" clip-path="url(#pf2fbfc46c1)" style="fill: none; stroke: #b0b0b0; stroke-opacity: 0.17; stroke-width: 0.8; stroke-linecap: square"/>
     </g>
     <g id="line2d_42">
      <g>
       <use xlink:href="#mc4cd0bb20a" x="479.65226" y="133.89134" style="stroke: #000000; stroke-width: 0.8"/>
      </g>
     </g>
     <g id="text_30">
      <text style="font: 11px 'Microsoft YaHei'; text-anchor: end" x="472.65226" y="138.287902" transform="rotate(-0 472.65226 138.287902)">2</text>
     </g>
    </g>
    <g id="ytick_15">
     <g id="line2d_43">
      <path d="M 479.65226 108.806238
L 865.19952 108.806238
" clip-path="url(#pf2fbfc46c1)" style="fill: none; stroke: #b0b0b0; stroke-opacity: 0.17; stroke-width: 0.8; stroke-linecap: square"/>
     </g>
     <g id="line2d_44">
      <g>
       <use xlink:href="#mc4cd0bb20a" x="479.65226" y="108.806238" style="stroke: #000000; stroke-width: 0.8"/>
      </g>
     </g>
     <g id="text_31">
      <text style="font: 11px 'Microsoft YaHei'; text-anchor: end" x="472.65226" y="113.202801" transform="rotate(-0 472.65226 113.202801)">4</text>
     </g>
    </g>
    <g id="ytick_16">
     <g id="line2d_45">
      <path d="M 479.65226 83.721137
L 865.19952 83.721137
" clip-path="url(#pf2fbfc46c1)" style="fill: none; stroke: #b0b0b0; stroke-opacity: 0.17; stroke-width: 0.8; stroke-linecap: square"/>
     </g>
     <g id="line2d_46">
      <g>
       <use xlink:href="#mc4cd0bb20a" x="479.65226" y="83.721137" style="stroke: #000000; stroke-width: 0.8"/>
      </g>
     </g>
     <g id="text_32">
      <text style="font: 11px 'Microsoft YaHei'; text-anchor: end" x="472.65226" y="88.1177" transform="rotate(-0 472.65226 88.1177)">6</text>
     </g>
    </g>
    <g id="ytick_17">
     <g id="line2d_47">
      <path d="M 479.65226 58.636036
L 865.19952 58.636036
" clip-path="url(#pf2fbfc46c1)" style="fill: none; stroke: #b0b0b0; stroke-opacity: 0.17; stroke-width: 0.8; stroke-linecap: square"/>
     </g>
     <g id="line2d_48">
      <g>
       <use xlink:href="#mc4cd0bb20a" x="479.65226" y="58.636036" style="stroke: #000000; stroke-width: 0.8"/>
      </g>
     </g>
     <g id="text_33">
      <text style="font: 11px 'Microsoft YaHei'; text-anchor: end" x="472.65226" y="63.032598" transform="rotate(-0 472.65226 63.032598)">8</text>
     </g>
    </g>
    <g id="ytick_18">
     <g id="line2d_49">
      <path d="M 479.65226 33.550935
L 865.19952 33.550935
" clip-path="url(#pf2fbfc46c1)" style="fill: none; stroke: #b0b0b0; stroke-opacity: 0.17; stroke-width: 0.8; stroke-linecap: square"/>
     </g>
     <g id="line2d_50">
      <g>
       <use xlink:href="#mc4cd0bb20a" x="479.65226" y="33.550935" style="stroke: #000000; stroke-width: 0.8"/>
      </g>
     </g>
     <g id="text_34">
      <text style="font: 11px 'Microsoft YaHei'; text-anchor: end" x="472.65226" y="37.947497" transform="rotate(-0 472.65226 37.947497)">10</text>
     </g>
    </g>
    <g id="text_35">
     <text style="font: 11px 'Microsoft YaHei'; text-anchor: middle" x="453.016791" y="130.368041" transform="rotate(-90 453.016791 130.368041)">航向偏差 / °</text>
    </g>
   </g>
   <g id="line2d_51">
    <path d="M 497.177135 224.84408
L 498.657217 224.788805
L 499.150578 224.364457
L 499.643939 223.270146
L 500.137299 221.241853
L 500.63066 217.893275
L 501.687861 209.028199
L 502.181222 205.743772
L 503.661304 197.739736
L 505.634747 185.540247
L 508.665391 166.849414
L 510.145473 159.109288
L 511.202674 154.465329
L 512.189396 151.045984
L 513.176117 148.536604
L 514.162838 146.810869
L 515.22004 145.74934
L 516.206761 145.56126
L 517.193482 146.110714
L 518.673564 148.345138
L 521.704208 153.899842
L 522.197569 155.082996
L 522.69093 155.614917
L 523.18429 156.744238
L 523.748131 157.591639
L 524.241492 157.898583
L 524.734852 158.911483
L 525.228213 159.120388
L 525.721574 160.0529
L 526.214934 160.142879
L 526.708295 160.949108
L 527.201656 160.932518
L 527.695016 161.64341
L 528.258857 161.880659
L 528.752218 161.681488
L 529.245578 162.15279
L 529.738939 161.85369
L 530.2323 162.249521
L 530.72566 161.818021
L 531.219021 162.128375
L 531.712382 161.585876
L 532.276222 161.232241
L 532.769583 161.333402
L 533.262944 160.62655
L 533.756304 160.893876
L 534.249665 160.079588
L 534.743026 160.387015
L 535.236386 159.52825
L 535.729747 160.057047
L 536.223108 159.457538
L 536.786948 159.643419
L 537.280309 160.748746
L 537.77367 160.639262
L 538.26703 162.259988
L 538.760391 162.666497
L 539.253752 164.581831
L 539.747112 165.387916
L 540.240473 167.458286
L 540.733834 168.542549
L 542.777756 175.202655
L 543.271117 175.91989
L 543.764478 177.01492
L 544.257838 177.17357
L 544.751199 177.745351
L 546.301761 176.518449
L 546.795122 175.060876
L 547.288483 174.325126
L 547.781843 172.289985
L 548.275204 170.819552
L 548.768565 168.027105
L 549.261925 166.674621
L 549.825766 164.121261
L 550.319127 161.315408
L 550.812487 160.357904
L 551.305848 158.268013
L 551.799209 158.458702
L 552.292569 157.515851
L 552.78593 158.861932
L 553.279291 159.101992
L 554.336492 163.726892
L 554.829853 165.283871
L 555.323213 168.856887
L 555.816574 170.945715
L 556.309935 174.994756
L 556.803295 177.288542
L 557.296656 181.291374
L 557.790017 183.30733
L 558.283377 187.163828
L 558.847218 190.318016
L 559.340579 191.733926
L 559.833939 195.0461
L 560.3273 195.857002
L 560.820661 198.88207
L 561.314021 199.151225
L 561.807382 201.820151
L 562.300743 201.390147
L 562.794103 203.862752
L 563.357944 205.095354
L 563.851305 204.38316
L 564.344665 206.696352
L 564.838026 205.341165
L 565.331387 207.444315
L 565.824747 205.585767
L 566.318108 207.713053
L 566.811469 205.663215
L 567.375309 205.620265
L 567.86867 207.94185
L 568.362031 205.324662
L 568.855391 207.287016
L 569.348752 204.083541
L 569.842113 206.046327
L 570.335473 202.918047
L 570.828834 205.122458
L 571.322195 202.001924
L 571.886035 201.333066
L 572.379396 203.448115
L 572.872757 200.376737
L 573.366117 202.947636
L 573.859478 200.784924
L 574.352839 204.477793
L 574.846199 203.818079
L 575.33956 209.270318
L 575.832921 209.712086
L 576.396761 212.25354
L 576.890122 216.5836
L 577.383483 215.489916
L 577.876843 219.58199
L 578.370204 218.316347
L 578.863565 222.468591
L 579.356925 221.054733
L 579.850286 224.749952
L 580.343647 223.03978
L 580.907488 223.823483
L 581.400848 226.855806
L 581.894209 224.824911
L 582.387569 227.437283
L 582.88093 225.156605
L 583.374291 227.380324
L 583.867651 224.86119
L 584.361012 226.382204
L 584.924853 225.339014
L 585.418214 222.194769
L 585.911574 222.387982
L 586.404935 218.397511
L 586.898296 217.300739
L 587.391656 212.594647
L 587.885017 210.551215
L 588.378378 205.136234
L 588.871738 202.08854
L 589.435579 196.969772
L 589.92894 191.340295
L 590.4223 187.795458
L 590.915661 182.495779
L 591.409022 179.189149
L 591.902382 174.496243
L 592.395743 171.538316
L 592.889104 167.669362
L 594.439666 159.896902
L 595.426387 156.918177
L 595.919748 155.849347
L 596.906469 154.56525
L 597.39983 154.755276
L 597.96367 154.686682
L 598.457031 153.991651
L 598.950392 154.772819
L 599.443752 154.197957
L 599.937113 155.227875
L 600.430474 153.927272
L 600.923834 154.534815
L 601.417195 152.273512
L 601.910556 152.279083
L 602.474396 150.687346
L 602.967757 147.769446
L 603.461118 148.577306
L 603.954478 146.07406
L 604.447839 147.80524
L 604.9412 145.877139
L 605.43456 148.214023
L 605.927921 146.064026
L 606.421282 148.271511
L 606.985122 148.010341
L 607.478483 145.277694
L 607.971844 147.783869
L 608.465204 145.37707
L 608.958565 148.369497
L 609.451926 145.952964
L 609.945286 148.733557
L 610.438647 145.956413
L 610.932008 148.875349
L 611.495848 149.086337
L 611.989209 146.407861
L 612.48257 149.110917
L 612.97593 146.009992
L 613.469291 147.911571
L 613.962652 143.994498
L 614.456012 144.932257
L 614.949373 139.727387
L 615.513214 136.091944
L 616.006574 134.535331
L 616.499935 126.858881
L 616.993296 123.338381
L 617.486656 114.259642
L 617.980017 109.666201
L 618.473378 99.66671
L 618.966738 94.002764
L 619.248659 89.217534
L 619.460099 83.193449
L 620.02394 73.74397
L 620.517301 68.199284
L 621.010661 58.226232
L 621.504022 53.701207
L 621.997383 45.446873
L 622.490743 43.1509
L 622.984104 37.270093
L 623.477464 37.191256
L 623.970825 33.620001
L 624.393706 33.298799
L 624.534666 33.35543
L 625.028027 36.421929
L 625.521387 35.918845
L 626.014748 40.870489
L 626.508109 42.468763
L 627.001469 49.568135
L 627.49483 53.398783
L 627.988191 62.205401
L 628.481551 67.534292
L 629.045392 76.704807
L 629.538753 87.055229
L 630.032113 93.569583
L 630.525474 103.735368
L 631.018835 110.061171
L 631.512195 119.440001
L 632.005556 125.061158
L 632.498917 133.263951
L 633.062757 139.916036
L 633.556118 143.71093
L 634.049479 149.505143
L 634.542839 152.116457
L 635.0362 156.301166
L 635.529561 157.816172
L 636.022921 160.676363
L 636.516282 161.111746
L 637.009643 162.92823
L 637.573483 163.427047
L 638.066844 162.512648
L 638.560205 163.07959
L 639.053565 161.134629
L 639.546926 160.782575
L 640.040287 157.540197
L 640.533647 156.720869
L 641.027008 153.713663
L 641.520369 153.529758
L 642.084209 151.292228
L 642.57757 147.451624
L 643.070931 146.387721
L 643.564291 142.175234
L 644.057652 141.059375
L 644.551013 136.692671
L 645.044373 135.406011
L 645.537734 130.722373
L 646.031095 129.07788
L 646.594935 124.971262
L 647.088296 119.618651
L 647.581657 118.06128
L 648.075017 113.582907
L 648.568378 113.032818
L 649.061739 109.069927
L 649.555099 108.75994
L 650.04846 104.753683
L 650.612301 102.377732
L 651.105661 102.311318
L 651.599022 98.570058
L 652.092383 98.73524
L 652.585743 95.016946
L 653.079104 95.159105
L 653.572465 91.577596
L 654.065825 91.80678
L 654.559186 88.04519
L 655.123027 85.920994
L 655.616388 85.97908
L 656.109748 82.237801
L 656.603109 82.367004
L 657.096469 78.888915
L 657.58983 78.969818
L 658.083191 75.613895
L 658.576551 75.682901
L 659.069912 72.464238
L 659.633753 70.966447
L 660.127114 71.576503
L 660.620474 69.867674
L 661.113835 71.660526
L 661.607196 71.489513
L 662.100556 75.01348
L 662.593917 76.769134
L 663.087278 81.946459
L 663.580638 85.114031
L 664.144479 90.842145
L 664.63784 97.260664
L 665.1312 101.403481
L 665.624561 109.239077
L 666.117922 114.644007
L 666.611282 123.189011
L 667.104643 128.527059
L 667.598004 136.70309
L 668.161844 143.604917
L 668.655205 147.059164
L 669.148566 152.783281
L 669.641926 154.210263
L 670.135287 157.848262
L 670.628648 157.297895
L 671.122008 159.039374
L 671.615369 156.8771
L 672.10873 156.692108
L 672.67257 153.866665
L 673.165931 149.559056
L 673.659292 147.056523
L 674.152652 141.704541
L 674.646013 138.118242
L 675.139374 132.357352
L 675.632734 128.101784
L 676.126095 122.329083
L 677.676657 110.638813
L 678.170018 109.031742
L 678.663378 107.80546
L 679.156739 108.28822
L 679.6501 109.446569
L 680.14346 111.832819
L 680.636821 114.853342
L 681.694022 123.532468
L 685.147547 154.548675
L 686.204748 161.116373
L 687.19147 165.788422
L 688.178191 169.43641
L 688.671552 170.928306
L 689.658273 172.949137
L 690.222114 173.661445
L 690.715474 173.999867
L 691.208835 174.100153
L 691.702196 174.078929
L 692.688917 173.582875
L 693.182278 173.02596
L 693.675638 172.683511
L 694.73284 170.90069
L 695.226201 170.44669
L 695.719561 169.078678
L 696.212922 168.602366
L 696.706282 166.874346
L 697.199643 166.246008
L 697.693004 163.793908
L 698.186364 162.352263
L 698.750205 159.269982
L 699.243566 155.324903
L 699.736927 153.370895
L 700.230287 149.469846
L 700.723648 148.16238
L 701.217009 144.882911
L 701.710369 144.506655
L 702.20373 141.890474
L 702.697091 142.372641
L 703.260931 141.780696
L 703.754292 140.095826
L 704.247653 141.699338
L 704.741013 140.423069
L 705.234374 142.483507
L 705.727735 141.450421
L 706.221095 143.853493
L 706.714456 143.010367
L 707.207817 145.591614
L 707.771657 146.586592
L 708.265018 145.64231
L 708.758379 147.90815
L 709.251739 146.083637
L 709.7451 147.207769
L 710.238461 144.312039
L 710.731821 144.462086
L 711.225182 140.531425
L 711.718543 139.666836
L 712.282383 136.042045
L 712.775744 130.530932
L 713.269105 128.033625
L 713.762465 121.566943
L 714.255826 118.18525
L 714.749187 110.895313
L 715.242547 106.686807
L 716.299749 90.65385
L 716.793109 86.057241
L 717.28647 79.284126
L 717.779831 77.26847
L 718.273191 72.489055
L 718.766552 72.360077
L 719.259913 69.18538
L 719.753273 70.846003
L 720.246634 69.220174
L 720.810475 70.490993
L 721.303835 74.514711
L 721.797196 74.901902
L 722.290557 80.278395
L 722.783917 81.729902
L 723.277278 88.161017
L 723.770639 90.256589
L 724.263999 97.107892
L 724.75736 99.243891
L 725.321201 104.232191
L 725.814561 110.610943
L 726.307922 111.706832
L 726.801283 117.150587
L 727.294643 117.158651
L 727.788004 121.506237
L 728.281365 120.482834
L 728.774725 123.856238
L 729.268086 122.215597
L 729.831927 122.988983
L 730.325287 125.849152
L 730.818648 123.958791
L 731.312009 125.754877
L 731.805369 122.573717
L 732.29873 122.855312
L 732.792091 118.521592
L 733.285451 117.762257
L 733.849292 114.588133
L 734.342653 110.049126
L 734.836014 109.20026
L 735.329374 104.588224
L 735.822735 103.713169
L 736.316096 99.212079
L 736.809456 98.294185
L 737.302817 93.787822
L 737.796177 92.740096
L 738.360018 89.55646
L 738.853379 85.272396
L 739.34674 84.621564
L 739.8401 81.41367
L 740.333461 82.017038
L 740.826822 80.333895
L 741.320182 82.238335
L 741.813543 82.228389
L 742.870744 89.615135
L 743.364105 92.370182
L 743.857466 97.998908
L 744.350826 102.077451
L 744.844187 108.840952
L 745.337548 113.926735
L 745.830908 121.073224
L 746.324269 126.281252
L 747.38147 139.286044
L 749.354913 157.302078
L 750.341634 163.283356
L 751.398836 166.896623
L 751.892196 168.186351
L 752.878918 168.947642
L 753.865639 168.389136
L 754.85236 166.926999
L 756.402922 163.744655
L 758.376365 159.811785
L 759.856447 157.58564
L 760.913648 156.342466
L 763.873812 154.018337
L 764.437653 153.757592
L 764.931014 153.801901
L 765.424374 153.578201
L 765.917735 153.7815
L 766.411096 153.772408
L 767.891178 155.102679
L 768.384538 155.738959
L 769.44174 157.581195
L 769.935101 158.691792
L 770.428461 159.512643
L 770.921822 160.786145
L 771.415182 161.428507
L 771.908543 162.65067
L 772.401904 162.890003
L 772.895264 163.933407
L 773.459105 164.401384
L 773.952466 163.857095
L 774.445827 164.452778
L 774.939187 162.940239
L 775.432548 162.78725
L 775.925909 160.011982
L 776.419269 159.45293
L 776.91263 156.460243
L 777.405991 156.326049
L 777.969831 154.847877
L 778.463192 151.85243
L 778.956553 151.872141
L 779.449913 148.232211
L 779.943274 148.059554
L 780.436635 144.016497
L 780.929995 143.670876
L 781.423356 139.52782
L 781.987197 137.46761
L 782.480557 138.16621
L 782.973918 134.778499
L 783.467279 135.859443
L 783.960639 132.366498
L 784.454 132.567788
L 784.947361 127.661037
L 785.440721 126.622654
L 785.934082 120.931289
L 786.497923 117.123998
L 786.991283 116.237006
L 787.484644 111.433246
L 787.978005 110.643708
L 788.471365 105.425833
L 788.964726 103.241222
L 789.458087 96.809073
L 789.951447 94.38878
L 790.444808 88.750499
L 791.008649 85.231678
L 791.502009 84.774361
L 791.99537 81.115391
L 792.488731 81.903217
L 792.982091 79.427797
L 793.475452 81.487109
L 793.968813 80.233285
L 794.462173 83.837708
L 794.955534 83.869322
L 795.519375 86.118567
L 796.012735 90.207273
L 796.506096 89.867179
L 796.999457 94.392752
L 797.492817 93.967444
L 797.986178 98.814074
L 798.479539 98.466247
L 798.972899 103.924561
L 799.53674 107.109777
L 800.030101 107.089871
L 800.523461 113.151402
L 801.016822 113.010748
L 801.510183 118.42231
L 802.003543 117.240696
L 802.496904 121.463615
L 802.990265 119.458718
L 803.483625 123.196137
L 804.047466 123.884026
L 804.540827 121.056753
L 805.034187 122.824557
L 805.527548 118.136496
L 806.020909 118.500418
L 806.514269 112.840248
L 807.00763 112.388916
L 807.500991 106.205646
L 807.994351 105.520016
L 808.558192 101.672818
L 809.051553 95.782104
L 809.544914 95.613732
L 810.038274 89.979082
L 810.531635 89.919424
L 811.024995 84.231536
L 811.518356 84.128929
L 812.011717 78.967356
L 812.505077 79.429601
L 813.068918 77.510466
L 813.562279 73.767052
L 814.05564 75.404665
L 814.549 72.535575
L 815.042361 75.071876
L 815.535722 73.333211
L 816.029082 76.684396
L 816.522443 76.021051
L 817.086284 78.468387
L 817.579644 83.353627
L 818.073005 84.244481
L 818.566366 90.101815
L 819.059726 91.939114
L 819.553087 98.558933
L 820.046448 101.053555
L 820.539808 108.052298
L 821.033169 110.574302
L 821.59701 115.797994
L 822.09037 122.403946
L 822.583731 124.410835
L 823.077092 130.199772
L 823.570452 131.206484
L 824.063813 135.44509
L 824.557174 135.011515
L 825.050534 137.343393
L 825.543895 135.446167
L 826.107736 134.299097
L 826.601096 133.863461
L 827.094457 130.063839
L 827.587818 128.345133
L 828.081178 124.425822
L 828.574539 122.780637
L 829.0679 119.997945
L 829.56126 119.38845
L 830.054621 118.293698
L 830.618462 118.546653
L 831.605183 121.005296
L 832.591904 125.805013
L 834.071986 135.664336
L 837.10263 156.990934
L 838.089352 162.477855
L 839.146553 167.043304
L 840.133274 170.429277
L 840.626635 171.745804
L 841.119996 172.654282
L 841.613356 173.302167
L 842.106717 173.528677
L 842.600078 173.499882
L 843.093438 173.167897
L 844.15064 171.951291
L 845.137361 170.395514
L 846.617443 167.658934
L 847.674645 165.529026
L 847.674645 165.529026
" clip-path="url(#pf2fbfc46c1)" style="fill: none; stroke: #42949e; stroke-width: 1.5; stroke-linecap: square"/>
   </g>
   <g id="line2d_52">
    <path d="M 479.65226 158.976441
L 865.19952 158.976441
" clip-path="url(#pf2fbfc46c1)" style="fill: none; stroke-dasharray: 1,1.65; stroke-dashoffset: 0; stroke: #888888"/>
   </g>
   <g id="patch_6">
    <path d="M 479.65226 237.144207
L 479.65226 23.591875
" style="fill: none; stroke: #000000; stroke-width: 1.1; stroke-linejoin: miter; stroke-linecap: square"/>
   </g>
   <g id="patch_7">
    <path d="M 479.65226 237.144207
L 865.19952 237.144207
" style="fill: none; stroke: #000000; stroke-width: 1.1; stroke-linejoin: miter; stroke-linecap: square"/>
   </g>
   <g id="text_36">
    <text style="font: 700 13px 'Microsoft YaHei'; text-anchor: middle" x="672.42589" y="17.591875" transform="rotate(-0 672.42589 17.591875)">B  山路运行</text>
   </g>
  </g>
  <g id="axes_3">
   <g id="patch_8">
    <path d="M 50.036406 507.144207
L 435.583666 507.144207
L 435.583666 293.591875
L 50.036406 293.591875
z
" style="fill: #ffffff"/>
   </g>
   <g id="matplotlib.axis_5">
    <g id="xtick_13">
     <g id="line2d_53">
      <g>
       <use xlink:href="#m7204f228ca" x="67.561282" y="507.144207" style="stroke: #000000; stroke-width: 0.8"/>
      </g>
     </g>
     <g id="text_37">
      <text style="font: 11px 'Microsoft YaHei'; text-anchor: middle" x="67.561282" y="522.937332" transform="rotate(-0 67.561282 522.937332)">0</text>
     </g>
    </g>
    <g id="xtick_14">
     <g id="line2d_54">
      <g>
       <use xlink:href="#m7204f228ca" x="121.868302" y="507.144207" style="stroke: #000000; stroke-width: 0.8"/>
      </g>
     </g>
     <g id="text_38">
      <text style="font: 11px 'Microsoft YaHei'; text-anchor: middle" x="121.868302" y="522.937332" transform="rotate(-0 121.868302 522.937332)">5</text>
     </g>
    </g>
    <g id="xtick_15">
     <g id="line2d_55">
      <g>
       <use xlink:href="#m7204f228ca" x="176.175322" y="507.144207" style="stroke: #000000; stroke-width: 0.8"/>
      </g>
     </g>
     <g id="text_39">
      <text style="font: 11px 'Microsoft YaHei'; text-anchor: middle" x="176.175322" y="522.937332" transform="rotate(-0 176.175322 522.937332)">10</text>
     </g>
    </g>
    <g id="xtick_16">
     <g id="line2d_56">
      <g>
       <use xlink:href="#m7204f228ca" x="230.482343" y="507.144207" style="stroke: #000000; stroke-width: 0.8"/>
      </g>
     </g>
     <g id="text_40">
      <text style="font: 11px 'Microsoft YaHei'; text-anchor: middle" x="230.482343" y="522.937332" transform="rotate(-0 230.482343 522.937332)">15</text>
     </g>
    </g>
    <g id="xtick_17">
     <g id="line2d_57">
      <g>
       <use xlink:href="#m7204f228ca" x="284.789363" y="507.144207" style="stroke: #000000; stroke-width: 0.8"/>
      </g>
     </g>
     <g id="text_41">
      <text style="font: 11px 'Microsoft YaHei'; text-anchor: middle" x="284.789363" y="522.937332" transform="rotate(-0 284.789363 522.937332)">20</text>
     </g>
    </g>
    <g id="xtick_18">
     <g id="line2d_58">
      <g>
       <use xlink:href="#m7204f228ca" x="339.096383" y="507.144207" style="stroke: #000000; stroke-width: 0.8"/>
      </g>
     </g>
     <g id="text_42">
      <text style="font: 11px 'Microsoft YaHei'; text-anchor: middle" x="339.096383" y="522.937332" transform="rotate(-0 339.096383 522.937332)">25</text>
     </g>
    </g>
    <g id="xtick_19">
     <g id="line2d_59">
      <g>
       <use xlink:href="#m7204f228ca" x="393.403404" y="507.144207" style="stroke: #000000; stroke-width: 0.8"/>
      </g>
     </g>
     <g id="text_43">
      <text style="font: 11px 'Microsoft YaHei'; text-anchor: middle" x="393.403404" y="522.937332" transform="rotate(-0 393.403404 522.937332)">30</text>
     </g>
    </g>
    <g id="text_44">
     <text style="font: 11px 'Microsoft YaHei'; text-anchor: middle" x="242.810036" y="538.464989" transform="rotate(-0 242.810036 538.464989)">运行时间 / s</text>
    </g>
   </g>
   <g id="matplotlib.axis_6">
    <g id="ytick_19">
     <g id="line2d_60">
      <path d="M 50.036406 498.272688
L 435.583666 498.272688
" clip-path="url(#p640bb110c2)" style="fill: none; stroke: #b0b0b0; stroke-opacity: 0.17; stroke-width: 0.8; stroke-linecap: square"/>
     </g>
     <g id="line2d_61">
      <g>
       <use xlink:href="#mc4cd0bb20a" x="50.036406" y="498.272688" style="stroke: #000000; stroke-width: 0.8"/>
      </g>
     </g>
     <g id="text_45">
      <text style="font: 11px 'Microsoft YaHei'; text-anchor: end" x="43.036406" y="502.66925" transform="rotate(-0 43.036406 502.66925)">-0.4</text>
     </g>
    </g>
    <g id="ytick_20">
     <g id="line2d_62">
      <path d="M 50.036406 474.132235
L 435.583666 474.132235
" clip-path="url(#p640bb110c2)" style="fill: none; stroke: #b0b0b0; stroke-opacity: 0.17; stroke-width: 0.8; stroke-linecap: square"/>
     </g>
     <g id="line2d_63">
      <g>
       <use xlink:href="#mc4cd0bb20a" x="50.036406" y="474.132235" style="stroke: #000000; stroke-width: 0.8"/>
      </g>
     </g>
     <g id="text_46">
      <text style="font: 11px 'Microsoft YaHei'; text-anchor: end" x="43.036406" y="478.528798" transform="rotate(-0 43.036406 478.528798)">-0.3</text>
     </g>
    </g>
    <g id="ytick_21">
     <g id="line2d_64">
      <path d="M 50.036406 449.991783
L 435.583666 449.991783
" clip-path="url(#p640bb110c2)" style="fill: none; stroke: #b0b0b0; stroke-opacity: 0.17; stroke-width: 0.8; stroke-linecap: square"/>
     </g>
     <g id="line2d_65">
      <g>
       <use xlink:href="#mc4cd0bb20a" x="50.036406" y="449.991783" style="stroke: #000000; stroke-width: 0.8"/>
      </g>
     </g>
     <g id="text_47">
      <text style="font: 11px 'Microsoft YaHei'; text-anchor: end" x="43.036406" y="454.388345" transform="rotate(-0 43.036406 454.388345)">-0.2</text>
     </g>
    </g>
    <g id="ytick_22">
     <g id="line2d_66">
      <path d="M 50.036406 425.85133
L 435.583666 425.85133
" clip-path="url(#p640bb110c2)" style="fill: none; stroke: #b0b0b0; stroke-opacity: 0.17; stroke-width: 0.8; stroke-linecap: square"/>
     </g>
     <g id="line2d_67">
      <g>
       <use xlink:href="#mc4cd0bb20a" x="50.036406" y="425.85133" style="stroke: #000000; stroke-width: 0.8"/>
      </g>
     </g>
     <g id="text_48">
      <text style="font: 11px 'Microsoft YaHei'; text-anchor: end" x="43.036406" y="430.247893" transform="rotate(-0 43.036406 430.247893)">-0.1</text>
     </g>
    </g>
    <g id="ytick_23">
     <g id="line2d_68">
      <path d="M 50.036406 401.710878
L 435.583666 401.710878
" clip-path="url(#p640bb110c2)" style="fill: none; stroke: #b0b0b0; stroke-opacity: 0.17; stroke-width: 0.8; stroke-linecap: square"/>
     </g>
     <g id="line2d_69">
      <g>
       <use xlink:href="#mc4cd0bb20a" x="50.036406" y="401.710878" style="stroke: #000000; stroke-width: 0.8"/>
      </g>
     </g>
     <g id="text_49">
      <text style="font: 11px 'Microsoft YaHei'; text-anchor: end" x="43.036406" y="406.107441" transform="rotate(-0 43.036406 406.107441)">0.0</text>
     </g>
    </g>
    <g id="ytick_24">
     <g id="line2d_70">
      <path d="M 50.036406 377.570426
L 435.583666 377.570426
" clip-path="url(#p640bb110c2)" style="fill: none; stroke: #b0b0b0; stroke-opacity: 0.17; stroke-width: 0.8; stroke-linecap: square"/>
     </g>
     <g id="line2d_71">
      <g>
       <use xlink:href="#mc4cd0bb20a" x="50.036406" y="377.570426" style="stroke: #000000; stroke-width: 0.8"/>
      </g>
     </g>
     <g id="text_50">
      <text style="font: 11px 'Microsoft YaHei'; text-anchor: end" x="43.036406" y="381.966988" transform="rotate(-0 43.036406 381.966988)">0.1</text>
     </g>
    </g>
    <g id="ytick_25">
     <g id="line2d_72">
      <path d="M 50.036406 353.429973
L 435.583666 353.429973
" clip-path="url(#p640bb110c2)" style="fill: none; stroke: #b0b0b0; stroke-opacity: 0.17; stroke-width: 0.8; stroke-linecap: square"/>
     </g>
     <g id="line2d_73">
      <g>
       <use xlink:href="#mc4cd0bb20a" x="50.036406" y="353.429973" style="stroke: #000000; stroke-width: 0.8"/>
      </g>
     </g>
     <g id="text_51">
      <text style="font: 11px 'Microsoft YaHei'; text-anchor: end" x="43.036406" y="357.826536" transform="rotate(-0 43.036406 357.826536)">0.2</text>
     </g>
    </g>
    <g id="ytick_26">
     <g id="line2d_74">
      <path d="M 50.036406 329.289521
L 435.583666 329.289521
" clip-path="url(#p640bb110c2)" style="fill: none; stroke: #b0b0b0; stroke-opacity: 0.17; stroke-width: 0.8; stroke-linecap: square"/>
     </g>
     <g id="line2d_75">
      <g>
       <use xlink:href="#mc4cd0bb20a" x="50.036406" y="329.289521" style="stroke: #000000; stroke-width: 0.8"/>
      </g>
     </g>
     <g id="text_52">
      <text style="font: 11px 'Microsoft YaHei'; text-anchor: end" x="43.036406" y="333.686083" transform="rotate(-0 43.036406 333.686083)">0.3</text>
     </g>
    </g>
    <g id="ytick_27">
     <g id="line2d_76">
      <path d="M 50.036406 305.149068
L 435.583666 305.149068
" clip-path="url(#p640bb110c2)" style="fill: none; stroke: #b0b0b0; stroke-opacity: 0.17; stroke-width: 0.8; stroke-linecap: square"/>
     </g>
     <g id="line2d_77">
      <g>
       <use xlink:href="#mc4cd0bb20a" x="50.036406" y="305.149068" style="stroke: #000000; stroke-width: 0.8"/>
      </g>
     </g>
     <g id="text_53">
      <text style="font: 11px 'Microsoft YaHei'; text-anchor: end" x="43.036406" y="309.545631" transform="rotate(-0 43.036406 309.545631)">0.4</text>
     </g>
    </g>
    <g id="text_54">
     <text style="font: 11px 'Microsoft YaHei'; text-anchor: middle" x="15.993125" y="400.368041" transform="rotate(-90 15.993125 400.368041)">横向偏差 / m</text>
    </g>
   </g>
   <g id="line2d_78">
    <path d="M 67.561282 401.811061
L 71.036931 401.729442
L 72.991984 401.581292
L 74.51258 401.27664
L 76.033177 400.585788
L 77.553773 399.780342
L 78.5313 399.454204
L 80.594967 398.827784
L 82.006949 398.186638
L 85.048142 396.430975
L 87.546265 394.901725
L 88.523792 394.497566
L 89.609932 394.313205
L 90.587458 394.367884
L 92.108055 394.71763
L 93.085581 395.155659
L 94.063108 396.00224
L 95.040634 397.331245
L 97.538757 401.120716
L 98.624897 402.184031
L 99.059353 402.431084
L 99.602424 402.599247
L 100.57995 402.550048
L 101.557476 402.198708
L 104.59867 400.880446
L 106.119266 400.453764
L 107.639863 400.280242
L 108.617389 400.355802
L 110.137986 400.729545
L 111.658582 401.276591
L 114.156705 402.420269
L 115.677302 403.315735
L 116.654828 404.090258
L 117.632354 405.106112
L 118.609881 406.53443
L 121.651074 411.793983
L 122.194144 412.243382
L 122.6286 412.449179
L 123.171671 412.534226
L 123.714741 412.37193
L 124.692267 411.736215
L 125.669793 410.694747
L 126.64732 409.27553
L 128.710987 405.692025
L 130.666039 402.30763
L 132.186636 400.072828
L 133.707232 398.334305
L 134.684759 397.518092
L 135.662285 396.916536
L 136.748426 396.456371
L 138.160408 396.103582
L 139.681005 395.905003
L 140.224075 395.576765
L 140.767145 394.880096
L 141.201601 394.001335
L 143.265268 388.975462
L 143.699724 388.39218
L 144.242794 388.070146
L 144.677251 388.092742
L 145.220321 388.443237
L 145.763391 389.242769
L 146.197847 390.168048
L 146.740917 391.720593
L 147.283988 393.886885
L 147.718444 396.094723
L 148.69597 402.647721
L 150.216567 414.107121
L 152.280233 431.189026
L 152.71469 433.46255
L 153.25776 434.89362
L 153.80083 435.260313
L 154.235286 435.191272
L 154.778356 434.716212
L 155.212812 434.017611
L 155.755883 432.737829
L 156.733409 429.421414
L 158.254006 422.64881
L 162.272725 403.16365
L 163.250251 399.838593
L 164.770848 394.998698
L 165.748374 391.866643
L 166.834515 389.472224
L 167.812041 387.816527
L 168.789568 386.549974
L 169.767094 385.680411
L 170.310164 385.507275
L 170.853234 385.621653
L 173.785813 387.30067
L 174.76334 388.247555
L 175.84948 389.765796
L 177.370077 392.388873
L 178.782059 395.305547
L 180.302656 398.420921
L 181.823252 400.931166
L 182.366323 402.387028
L 183.343849 406.351373
L 183.886919 408.579585
L 184.321375 409.760584
L 184.864446 410.159964
L 185.298902 409.566568
L 186.819498 405.320479
L 187.362569 404.457555
L 187.797025 404.102762
L 188.883165 403.607497
L 190.838218 402.979942
L 193.336341 402.664812
L 194.856937 402.766033
L 195.834464 402.80572
L 196.920604 402.714059
L 197.35506 402.942717
L 197.89813 403.790554
L 199.418727 408.074736
L 199.853183 408.524955
L 200.396253 408.049026
L 201.37378 404.841895
L 202.351306 401.625493
L 202.894376 400.670449
L 203.871903 399.904182
L 205.935569 398.836016
L 206.913096 398.520355
L 207.890622 398.402139
L 208.868149 398.49228
L 209.954289 398.830705
L 211.366271 399.582945
L 213.429938 400.86729
L 215.928061 402.047565
L 218.969254 403.62343
L 219.946781 403.690733
L 220.489851 403.946574
L 220.924307 404.619754
L 222.444904 409.016189
L 222.987974 409.360649
L 223.42243 408.616641
L 224.943027 403.040703
L 225.486097 401.897266
L 225.920553 401.421941
L 229.504816 398.986966
L 230.482343 398.587369
L 231.459869 398.378433
L 232.437395 398.380147
L 233.523536 398.603084
L 234.935518 399.203289
L 236.456115 400.138248
L 240.474834 402.961547
L 241.995431 403.669827
L 243.516028 404.115195
L 245.036624 404.28174
L 246.01415 404.235656
L 247.534747 403.861044
L 248.512273 403.654885
L 249.4898 403.186753
L 250.03287 403.11957
L 250.57594 403.664034
L 251.010396 404.642664
L 251.987923 407.256712
L 252.530993 407.602718
L 253.074063 406.527767
L 254.486046 400.992144
L 255.029116 399.678228
L 255.572186 399.017986
L 257.092783 397.989796
L 258.070309 397.494941
L 259.047835 397.217543
L 260.025362 397.185557
L 261.111502 397.478308
L 262.089028 398.016423
L 264.044081 399.52764
L 267.628345 402.453342
L 269.040327 403.383594
L 270.560924 404.156571
L 272.08152 404.640539
L 273.602117 404.804622
L 274.579643 404.739732
L 276.10024 404.352254
L 277.620836 403.69573
L 279.575889 402.591691
L 284.137679 400.010956
L 285.658275 399.399695
L 288.590854 398.595673
L 290.111451 398.276223
L 290.654521 397.904194
L 291.632048 396.642759
L 292.609574 395.425549
L 293.152644 395.217652
L 293.695714 395.548159
L 294.13017 396.143486
L 295.107697 398.312627
L 297.171364 403.13473
L 298.14889 404.791514
L 299.126416 406.053939
L 300.212557 407.079184
L 301.190083 407.67637
L 302.167609 407.987516
L 303.145136 408.035894
L 304.231276 407.807091
L 305.208803 407.377318
L 306.729399 406.414621
L 309.661978 404.186844
L 310.748119 403.096323
L 311.725645 401.613061
L 312.703171 399.572806
L 313.680698 396.703545
L 316.178821 388.594936
L 316.721891 387.706905
L 317.264961 387.411016
L 317.699417 387.766677
L 318.242487 389.036875
L 318.676944 390.635238
L 319.220014 393.303024
L 320.19754 399.888322
L 321.175067 407.888034
L 325.736856 449.070463
L 328.234979 469.09393
L 329.755576 479.455133
L 331.276172 487.992404
L 332.253699 492.124501
L 333.231225 495.157193
L 333.774295 496.239289
L 334.317365 497.034645
L 334.751822 497.395858
L 335.294892 497.437283
L 335.729348 497.264655
L 336.272418 496.765575
L 337.249945 494.824586
L 338.227471 491.942892
L 339.313611 487.48782
L 340.291138 482.488863
L 341.811734 473.284688
L 345.287384 450.900599
L 346.80798 439.210246
L 349.306103 418.462928
L 351.804226 397.45004
L 358.864139 340.51739
L 361.796718 314.034879
L 362.882858 307.437776
L 363.317314 305.612975
L 363.860385 304.073418
L 364.403455 303.373562
L 364.837911 303.357316
L 365.380981 303.978908
L 365.815437 304.97714
L 366.358507 306.814494
L 367.336034 311.522969
L 368.31356 317.900755
L 369.834157 330.132216
L 375.373473 378.189218
L 376.350999 384.778451
L 377.43714 390.137776
L 377.871596 391.468398
L 378.414666 392.1185
L 378.849122 392.245889
L 379.935263 392.20782
L 380.369719 391.932522
L 380.912789 391.221417
L 381.890315 389.173269
L 382.867842 387.230614
L 384.931508 381.758215
L 385.909035 378.496309
L 386.886561 374.580775
L 388.950228 365.410011
L 389.927754 361.919422
L 390.470824 360.649803
L 390.905281 360.109467
L 391.448351 360.199922
L 391.882807 361.106396
L 392.425877 363.323286
L 392.968947 366.735394
L 393.403404 370.358586
L 394.489544 382.375196
L 395.901527 401.766353
L 397.965193 429.766164
L 398.94272 440.943386
L 399.920246 450.155648
L 401.006386 457.691477
L 401.440843 459.84664
L 401.983913 461.818722
L 402.418369 462.828034
L 402.961439 463.4314
L 403.504509 463.288417
L 403.938966 462.683964
L 404.482036 461.438896
L 404.916492 460.072981
L 406.002632 455.510821
L 406.980159 450.102757
L 408.500755 439.877102
L 411.433334 419.688345
L 412.953931 410.782088
L 414.474527 403.410269
L 415.452054 399.501061
L 416.538194 395.931002
L 417.515721 393.404486
L 418.058791 392.245045
L 418.058791 392.245045
" clip-path="url(#p640bb110c2)" style="fill: none; stroke: #0f4d92; stroke-width: 1.5; stroke-linecap: square"/>
   </g>
   <g id="line2d_79">
    <path d="M 50.036406 401.710878
L 435.583666 401.710878
" clip-path="url(#p640bb110c2)" style="fill: none; stroke-dasharray: 1,1.65; stroke-dashoffset: 0; stroke: #888888"/>
   </g>
   <g id="patch_9">
    <path d="M 50.036406 507.144207
L 50.036406 293.591875
" style="fill: none; stroke: #000000; stroke-width: 1.1; stroke-linejoin: miter; stroke-linecap: square"/>
   </g>
   <g id="patch_10">
    <path d="M 50.036406 507.144207
L 435.583666 507.144207
" style="fill: none; stroke: #000000; stroke-width: 1.1; stroke-linejoin: miter; stroke-linecap: square"/>
   </g>
   <g id="text_55">
    <text style="font: 700 13px 'Microsoft YaHei'; text-anchor: middle" x="242.810036" y="287.591875" transform="rotate(-0 242.810036 287.591875)">C  坡道运行</text>
   </g>
  </g>
  <g id="axes_4">
   <g id="patch_11">
    <path d="M 479.65226 507.144207
L 865.19952 507.144207
L 865.19952 293.591875
L 479.65226 293.591875
z
" style="fill: #ffffff"/>
   </g>
   <g id="matplotlib.axis_7">
    <g id="xtick_20">
     <g id="line2d_80">
      <g>
       <use xlink:href="#m7204f228ca" x="497.177135" y="507.144207" style="stroke: #000000; stroke-width: 0.8"/>
      </g>
     </g>
     <g id="text_56">
      <text style="font: 11px 'Microsoft YaHei'; text-anchor: middle" x="497.177135" y="522.937332" transform="rotate(-0 497.177135 522.937332)">0</text>
     </g>
    </g>
    <g id="xtick_21">
     <g id="line2d_81">
      <g>
       <use xlink:href="#m7204f228ca" x="551.484156" y="507.144207" style="stroke: #000000; stroke-width: 0.8"/>
      </g>
     </g>
     <g id="text_57">
      <text style="font: 11px 'Microsoft YaHei'; text-anchor: middle" x="551.484156" y="522.937332" transform="rotate(-0 551.484156 522.937332)">5</text>
     </g>
    </g>
    <g id="xtick_22">
     <g id="line2d_82">
      <g>
       <use xlink:href="#m7204f228ca" x="605.791176" y="507.144207" style="stroke: #000000; stroke-width: 0.8"/>
      </g>
     </g>
     <g id="text_58">
      <text style="font: 11px 'Microsoft YaHei'; text-anchor: middle" x="605.791176" y="522.937332" transform="rotate(-0 605.791176 522.937332)">10</text>
     </g>
    </g>
    <g id="xtick_23">
     <g id="line2d_83">
      <g>
       <use xlink:href="#m7204f228ca" x="660.098196" y="507.144207" style="stroke: #000000; stroke-width: 0.8"/>
      </g>
     </g>
     <g id="text_59">
      <text style="font: 11px 'Microsoft YaHei'; text-anchor: middle" x="660.098196" y="522.937332" transform="rotate(-0 660.098196 522.937332)">15</text>
     </g>
    </g>
    <g id="xtick_24">
     <g id="line2d_84">
      <g>
       <use xlink:href="#m7204f228ca" x="714.405217" y="507.144207" style="stroke: #000000; stroke-width: 0.8"/>
      </g>
     </g>
     <g id="text_60">
      <text style="font: 11px 'Microsoft YaHei'; text-anchor: middle" x="714.405217" y="522.937332" transform="rotate(-0 714.405217 522.937332)">20</text>
     </g>
    </g>
    <g id="xtick_25">
     <g id="line2d_85">
      <g>
       <use xlink:href="#m7204f228ca" x="768.712237" y="507.144207" style="stroke: #000000; stroke-width: 0.8"/>
      </g>
     </g>
     <g id="text_61">
      <text style="font: 11px 'Microsoft YaHei'; text-anchor: middle" x="768.712237" y="522.937332" transform="rotate(-0 768.712237 522.937332)">25</text>
     </g>
    </g>
    <g id="xtick_26">
     <g id="line2d_86">
      <g>
       <use xlink:href="#m7204f228ca" x="823.019257" y="507.144207" style="stroke: #000000; stroke-width: 0.8"/>
      </g>
     </g>
     <g id="text_62">
      <text style="font: 11px 'Microsoft YaHei'; text-anchor: middle" x="823.019257" y="522.937332" transform="rotate(-0 823.019257 522.937332)">30</text>
     </g>
    </g>
    <g id="text_63">
     <text style="font: 11px 'Microsoft YaHei'; text-anchor: middle" x="672.42589" y="538.464989" transform="rotate(-0 672.42589 538.464989)">运行时间 / s</text>
    </g>
   </g>
   <g id="matplotlib.axis_8">
    <g id="ytick_28">
     <g id="line2d_87">
      <path d="M 479.65226 495.627909
L 865.19952 495.627909
" clip-path="url(#pf810b67f54)" style="fill: none; stroke: #b0b0b0; stroke-opacity: 0.17; stroke-width: 0.8; stroke-linecap: square"/>
     </g>
     <g id="line2d_88">
      <g>
       <use xlink:href="#mc4cd0bb20a" x="479.65226" y="495.627909" style="stroke: #000000; stroke-width: 0.8"/>
      </g>
     </g>
     <g id="text_64">
      <text style="font: 11px 'Microsoft YaHei'; text-anchor: end" x="472.65226" y="500.024472" transform="rotate(-0 472.65226 500.024472)">-4</text>
     </g>
    </g>
    <g id="ytick_29">
     <g id="line2d_89">
      <path d="M 479.65226 458.15755
L 865.19952 458.15755
" clip-path="url(#pf810b67f54)" style="fill: none; stroke: #b0b0b0; stroke-opacity: 0.17; stroke-width: 0.8; stroke-linecap: square"/>
     </g>
     <g id="line2d_90">
      <g>
       <use xlink:href="#mc4cd0bb20a" x="479.65226" y="458.15755" style="stroke: #000000; stroke-width: 0.8"/>
      </g>
     </g>
     <g id="text_65">
      <text style="font: 11px 'Microsoft YaHei'; text-anchor: end" x="472.65226" y="462.554113" transform="rotate(-0 472.65226 462.554113)">-2</text>
     </g>
    </g>
    <g id="ytick_30">
     <g id="line2d_91">
      <path d="M 479.65226 420.687192
L 865.19952 420.687192
" clip-path="url(#pf810b67f54)" style="fill: none; stroke: #b0b0b0; stroke-opacity: 0.17; stroke-width: 0.8; stroke-linecap: square"/>
     </g>
     <g id="line2d_92">
      <g>
       <use xlink:href="#mc4cd0bb20a" x="479.65226" y="420.687192" style="stroke: #000000; stroke-width: 0.8"/>
      </g>
     </g>
     <g id="text_66">
      <text style="font: 11px 'Microsoft YaHei'; text-anchor: end" x="472.65226" y="425.083754" transform="rotate(-0 472.65226 425.083754)">0</text>
     </g>
    </g>
    <g id="ytick_31">
     <g id="line2d_93">
      <path d="M 479.65226 383.216833
L 865.19952 383.216833
" clip-path="url(#pf810b67f54)" style="fill: none; stroke: #b0b0b0; stroke-opacity: 0.17; stroke-width: 0.8; stroke-linecap: square"/>
     </g>
     <g id="line2d_94">
      <g>
       <use xlink:href="#mc4cd0bb20a" x="479.65226" y="383.216833" style="stroke: #000000; stroke-width: 0.8"/>
      </g>
     </g>
     <g id="text_67">
      <text style="font: 11px 'Microsoft YaHei'; text-anchor: end" x="472.65226" y="387.613396" transform="rotate(-0 472.65226 387.613396)">2</text>
     </g>
    </g>
    <g id="ytick_32">
     <g id="line2d_95">
      <path d="M 479.65226 345.746475
L 865.19952 345.746475
" clip-path="url(#pf810b67f54)" style="fill: none; stroke: #b0b0b0; stroke-opacity: 0.17; stroke-width: 0.8; stroke-linecap: square"/>
     </g>
     <g id="line2d_96">
      <g>
       <use xlink:href="#mc4cd0bb20a" x="479.65226" y="345.746475" style="stroke: #000000; stroke-width: 0.8"/>
      </g>
     </g>
     <g id="text_68">
      <text style="font: 11px 'Microsoft YaHei'; text-anchor: end" x="472.65226" y="350.143037" transform="rotate(-0 472.65226 350.143037)">4</text>
     </g>
    </g>
    <g id="ytick_33">
     <g id="line2d_97">
      <path d="M 479.65226 308.276116
L 865.19952 308.276116
" clip-path="url(#pf810b67f54)" style="fill: none; stroke: #b0b0b0; stroke-opacity: 0.17; stroke-width: 0.8; stroke-linecap: square"/>
     </g>
     <g id="line2d_98">
      <g>
       <use xlink:href="#mc4cd0bb20a" x="479.65226" y="308.276116" style="stroke: #000000; stroke-width: 0.8"/>
      </g>
     </g>
     <g id="text_69">
      <text style="font: 11px 'Microsoft YaHei'; text-anchor: end" x="472.65226" y="312.672679" transform="rotate(-0 472.65226 312.672679)">6</text>
     </g>
    </g>
    <g id="text_70">
     <text style="font: 11px 'Microsoft YaHei'; text-anchor: middle" x="454.708041" y="400.368041" transform="rotate(-90 454.708041 400.368041)">航向偏差 / °</text>
    </g>
   </g>
   <g id="line2d_99">
    <path d="M 497.177135 411.947911
L 500.109715 411.834943
L 501.630311 411.632086
L 504.128434 410.790922
L 504.671504 410.884933
L 505.10596 411.097289
L 505.649031 411.648925
L 507.169627 416.940042
L 508.147154 419.519764
L 508.690224 419.144745
L 509.12468 419.106222
L 509.66775 419.604046
L 510.21082 418.951222
L 510.645276 418.891998
L 511.188347 419.40621
L 511.622803 419.416291
L 512.165873 418.933412
L 512.708943 419.427929
L 513.143399 419.40336
L 513.68647 418.873982
L 514.120926 418.809074
L 514.663996 419.079121
L 515.207066 418.698717
L 517.705189 418.321428
L 518.139645 418.281582
L 518.682715 418.393217
L 519.225786 417.960714
L 519.660242 417.883731
L 520.203312 418.397953
L 520.637768 418.41611
L 521.180838 417.762143
L 521.723909 418.889759
L 522.158365 419.13757
L 522.701435 418.555992
L 523.244505 419.750755
L 523.678961 419.979315
L 524.222032 419.49463
L 524.656488 419.777005
L 525.199558 420.620877
L 525.742628 420.488074
L 526.720155 420.858602
L 527.697681 420.414218
L 528.675207 419.708331
L 529.218277 419.481328
L 529.761348 419.094297
L 530.195804 418.934398
L 531.7164 418.85764
L 532.693927 419.016632
L 533.236997 419.342819
L 533.780067 419.431047
L 534.214523 419.631757
L 534.757594 420.136192
L 535.19205 420.368904
L 535.73512 420.316387
L 536.27819 420.891171
L 536.712646 421.098564
L 537.255716 420.965866
L 537.690173 421.140759
L 538.233243 421.79078
L 538.776313 421.595625
L 539.210769 421.755408
L 539.753839 422.366724
L 540.29691 422.091086
L 540.731366 422.203203
L 541.274436 422.766126
L 541.708892 422.853181
L 542.251962 422.499961
L 542.795033 423.044006
L 543.229489 423.087
L 543.772559 422.6603
L 544.207015 422.711567
L 544.750085 423.258959
L 545.293155 422.821661
L 545.727612 422.8646
L 546.270682 423.395105
L 546.813752 422.983576
L 547.248208 423.000704
L 547.791278 423.263017
L 548.225735 423.042948
L 548.768805 422.406165
L 549.311875 421.978889
L 550.723857 419.826921
L 552.244454 417.560789
L 553.330594 416.303999
L 554.308121 415.493206
L 555.285647 414.984968
L 556.263174 414.782958
L 557.2407 414.867537
L 558.32684 415.247775
L 559.304367 415.788971
L 560.824963 416.87643
L 566.364279 421.222025
L 567.341806 421.7645
L 569.839929 422.720791
L 571.360525 423.938073
L 571.794981 424.646409
L 572.338052 426.482652
L 572.881122 427.258296
L 573.315578 428.465117
L 573.858648 430.665829
L 574.293104 431.753017
L 574.836175 432.206322
L 575.379245 433.829227
L 575.813701 434.337572
L 576.356771 433.937258
L 576.899841 434.611269
L 577.334297 434.216241
L 578.311824 431.128849
L 578.854894 429.763423
L 579.83242 425.122324
L 580.809947 420.863016
L 582.330543 413.448786
L 583.416684 407.811603
L 584.39421 403.923529
L 585.371736 401.011786
L 586.349263 399.09057
L 586.892333 398.450775
L 587.326789 398.141826
L 587.869859 397.98783
L 588.41293 398.067704
L 588.847386 398.282503
L 589.390456 398.716906
L 590.367982 399.899611
L 591.345509 401.490571
L 593.952246 406.313409
L 595.364228 409.656098
L 598.405421 417.173047
L 600.469088 421.706764
L 601.446614 423.299138
L 603.401667 425.930155
L 604.922264 427.564546
L 605.89979 428.247935
L 606.985931 428.645223
L 607.963457 428.752917
L 608.940983 428.638621
L 609.91851 428.286196
L 611.982176 427.051594
L 612.416633 426.571522
L 612.959703 425.224706
L 613.502773 424.245982
L 614.480299 421.365694
L 614.914755 420.790417
L 615.457826 420.625892
L 616.000896 420.711525
L 616.978422 421.054248
L 618.499019 421.288904
L 621.431598 421.613004
L 624.472791 421.829672
L 626.536458 421.864992
L 626.970914 421.839345
L 627.513984 421.533524
L 628.491511 420.749559
L 629.034581 419.26207
L 629.469037 418.430704
L 630.555177 417.60032
L 630.989634 417.853961
L 633.0533 419.643273
L 636.52895 421.797969
L 638.049546 422.440913
L 639.570143 422.798697
L 640.982125 422.887504
L 642.502722 422.868437
L 644.023318 422.732802
L 647.064512 422.125274
L 649.019564 421.582962
L 650.540161 420.922257
L 651.083231 420.689318
L 651.517687 420.104704
L 652.060757 418.633649
L 653.038284 417.428415
L 653.581354 417.215964
L 654.55888 417.935387
L 655.536407 418.657818
L 658.03453 420.152812
L 660.098196 421.384041
L 662.053249 422.242422
L 663.573846 422.66673
L 665.094442 422.840641
L 666.071969 422.75544
L 668.570092 422.001216
L 671.611285 420.729593
L 674.652478 419.497847
L 675.630004 419.209865
L 677.585057 419.156149
L 678.671197 419.157839
L 680.191794 419.144786
L 680.62625 419.004207
L 681.603776 417.509696
L 682.146847 417.048447
L 682.689917 416.366146
L 683.124373 416.512314
L 684.101899 417.600515
L 684.64497 418.302891
L 687.143093 420.519261
L 688.663689 421.703768
L 689.641215 422.310516
L 691.161812 422.900547
L 692.682409 423.080113
L 694.203005 422.946735
L 695.723602 422.540952
L 697.678654 421.747075
L 703.217971 419.201659
L 705.173023 418.615583
L 706.69362 418.394821
L 708.214216 418.398484
L 709.734813 418.609963
L 711.689866 419.127634
L 714.187989 420.044946
L 716.794726 421.00954
L 718.206708 421.31423
L 719.292849 421.50215
L 719.727305 421.637429
L 721.247901 422.792082
L 722.225428 424.670302
L 722.768498 425.161733
L 723.311568 426.211271
L 723.746024 426.536667
L 724.723551 426.403093
L 725.266621 426.02939
L 726.244147 424.888436
L 727.764744 422.83716
L 729.28534 421.088812
L 730.805937 419.66921
L 732.326533 418.522777
L 733.30406 417.93579
L 734.281586 417.538434
L 735.259113 417.32723
L 736.345253 417.32398
L 738.843376 417.473153
L 739.277832 417.388864
L 739.820902 417.040176
L 740.363972 416.967858
L 741.341499 416.42053
L 741.775955 416.391476
L 742.319025 416.208332
L 743.296552 416.730515
L 743.839622 416.23413
L 744.274078 416.311291
L 744.817148 418.027162
L 745.360218 416.859289
L 745.794674 417.234276
L 746.337745 420.321301
L 746.880815 418.757927
L 747.315271 419.263144
L 747.858341 422.456943
L 748.292797 422.414871
L 748.835868 418.75762
L 749.378938 420.636232
L 749.813394 419.230395
L 750.356464 413.854489
L 750.79092 411.721601
L 751.333991 411.606054
L 751.877061 404.918254
L 752.311517 401.783018
L 752.854587 400.810647
L 753.397657 393.761329
L 753.832113 390.580489
L 754.375184 389.742819
L 754.80964 386.622336
L 755.35271 379.561293
L 755.89578 378.739084
L 756.330236 375.535204
L 756.873307 368.3039
L 757.416377 367.744554
L 757.850833 365.02112
L 758.393903 358.645084
L 758.828359 356.175669
L 759.37143 356.271968
L 759.9145 349.980948
L 760.348956 347.492054
L 760.892026 347.559662
L 761.326482 345.137077
L 761.869552 339.064161
L 762.412623 339.395489
L 762.847079 337.231703
L 763.390149 331.504908
L 763.933219 332.111586
L 764.367675 330.157745
L 764.910746 324.675849
L 765.345202 322.817748
L 765.888272 323.606697
L 766.431342 318.21535
L 766.865798 316.361594
L 767.408869 317.135182
L 767.843325 315.332354
L 768.386395 310.117391
L 768.929465 311.321094
L 769.363921 310.026572
L 769.906991 305.605158
L 770.450062 307.638247
L 770.884518 306.985354
L 771.427588 303.402379
L 771.862044 303.298799
L 772.405114 306.359449
L 772.948185 303.489053
L 773.382641 303.545793
L 773.925711 306.47974
L 774.360167 306.54092
L 774.903237 303.808866
L 775.446308 307.234693
L 775.880764 307.906361
L 776.423834 306.207361
L 776.966904 310.761012
L 777.40136 312.26415
L 777.94443 311.515138
L 778.378887 313.49045
L 778.921957 318.912199
L 779.465027 319.423752
L 779.899483 322.327255
L 780.442553 328.415107
L 780.87701 331.61339
L 781.42008 334.136904
L 781.96315 339.637744
L 782.397606 342.288165
L 782.940676 344.620948
L 784.895729 360.591843
L 785.438799 365.249452
L 786.416326 375.126468
L 786.959396 379.453472
L 787.936922 389.623641
L 788.479992 393.675646
L 788.914449 397.950564
L 789.457519 404.823321
L 790.000589 409.279922
L 790.435045 414.085481
L 791.412572 426.488589
L 791.955642 431.008005
L 792.933168 442.498347
L 793.476238 446.266533
L 794.019308 452.3996
L 794.345151 453.60673
L 794.453765 455.844837
L 794.996835 458.262704
L 795.431291 460.923003
L 795.974361 465.222266
L 796.517431 466.054084
L 796.951888 467.5162
L 797.494958 470.42911
L 797.929414 471.199116
L 798.472484 470.167752
L 799.015554 471.923398
L 799.450011 471.793859
L 799.993081 469.644692
L 800.536151 470.557972
L 800.970607 469.794036
L 801.513677 466.922991
L 801.948133 465.878633
L 802.491204 466.20958
L 803.034274 462.822194
L 803.46873 461.456053
L 804.0118 461.561073
L 804.446256 460.129119
L 804.989327 456.396994
L 805.532397 456.472527
L 805.966853 455.092267
L 806.509923 451.555974
L 807.052993 452.009285
L 807.48745 450.9564
L 808.03052 447.987349
L 808.464976 447.56198
L 809.008046 449.502544
L 809.551116 447.801506
L 809.985572 448.303122
L 810.528643 451.216854
L 810.963099 452.060754
L 811.506169 451.211522
L 812.049239 454.740452
L 812.483695 456.029622
L 813.026766 455.59191
L 813.569836 459.340274
L 814.004292 460.667283
L 814.547362 460.194709
L 814.981818 461.55052
L 815.524889 465.561622
L 816.067959 465.585481
L 816.502415 467.638186
L 817.045485 472.524021
L 817.588555 473.667433
L 818.023011 476.320762
L 818.566082 481.067844
L 819.000538 483.491768
L 819.543608 485.631241
L 820.521134 491.845076
L 821.498661 495.895033
L 822.041731 497.154438
L 822.584801 497.437283
L 823.019257 496.960102
L 823.562328 495.362231
L 824.105398 492.937826
L 825.082924 486.337177
L 826.06045 477.818107
L 827.581047 462.25506
L 830.07917 435.942859
L 831.599767 422.340785
L 832.577293 415.326246
L 833.554819 409.735316
L 834.532346 405.434075
L 835.618486 401.944507
L 836.596012 399.912621
L 837.139083 399.268547
L 837.573539 398.959261
L 838.116609 398.801917
L 838.551065 398.874375
L 839.094135 399.189005
L 840.071662 400.141861
L 841.049188 401.612692
L 842.135328 403.594488
L 844.090381 407.723467
L 847.674645 415.608696
L 847.674645 415.608696
" clip-path="url(#pf810b67f54)" style="fill: none; stroke: #42949e; stroke-width: 1.5; stroke-linecap: square"/>
   </g>
   <g id="line2d_100">
    <path d="M 479.65226 420.687192
L 865.19952 420.687192
" clip-path="url(#pf810b67f54)" style="fill: none; stroke-dasharray: 1,1.65; stroke-dashoffset: 0; stroke: #888888"/>
   </g>
   <g id="patch_12">
    <path d="M 479.65226 507.144207
L 479.65226 293.591875
" style="fill: none; stroke: #000000; stroke-width: 1.1; stroke-linejoin: miter; stroke-linecap: square"/>
   </g>
   <g id="patch_13">
    <path d="M 479.65226 507.144207
L 865.19952 507.144207
" style="fill: none; stroke: #000000; stroke-width: 1.1; stroke-linejoin: miter; stroke-linecap: square"/>
   </g>
   <g id="text_71">
    <text style="font: 700 13px 'Microsoft YaHei'; text-anchor: middle" x="672.42589" y="287.591875" transform="rotate(-0 672.42589 287.591875)">D  坡道运行</text>
   </g>
  </g>
 </g>
 <defs>
  <clipPath id="pf2a1d60dff">
   <rect x="50.036406" y="23.591875" width="385.54726" height="213.552332"/>
  </clipPath>
  <clipPath id="pf2fbfc46c1">
   <rect x="479.65226" y="23.591875" width="385.54726" height="213.552332"/>
  </clipPath>
  <clipPath id="p640bb110c2">
   <rect x="50.036406" y="293.591875" width="385.54726" height="213.552332"/>
  </clipPath>
  <clipPath id="pf810b67f54">
   <rect x="479.65226" y="293.591875" width="385.54726" height="213.552332"/>
  </clipPath>
 </defs>
</svg>
